<mxfile host="Electron" agent="Mozilla/5.0 (X11; Linux x86_64) AppleWebKit/537.36 (KHTML, like Gecko) draw.io/24.7.17 Chrome/128.0.6613.36 Electron/32.0.1 Safari/537.36" version="24.7.17">
  <diagram name="Page-1" id="fS2TBBuwBfw6XBj3Vpff">
    <mxGraphModel dx="1383" dy="820" grid="1" gridSize="10" guides="1" tooltips="1" connect="1" arrows="1" fold="1" page="1" pageScale="1" pageWidth="1169" pageHeight="827" math="0" shadow="0">
      <root>
        <mxCell id="0" />
        <mxCell id="1" parent="0" />
        <mxCell id="SbbcOOe-M4RnM6OQ8KH8-1" value="" style="ellipse;html=1;shape=startState;fillColor=#000000;strokeColor=#ff0000;" parent="1" vertex="1">
          <mxGeometry x="505" y="20" width="30" height="30" as="geometry" />
        </mxCell>
        <mxCell id="SbbcOOe-M4RnM6OQ8KH8-2" value="" style="edgeStyle=orthogonalEdgeStyle;html=1;verticalAlign=bottom;endArrow=open;endSize=8;strokeColor=#ff0000;rounded=0;" parent="1" source="SbbcOOe-M4RnM6OQ8KH8-1" edge="1">
          <mxGeometry relative="1" as="geometry">
            <mxPoint x="520" y="130" as="targetPoint" />
          </mxGeometry>
        </mxCell>
        <mxCell id="SbbcOOe-M4RnM6OQ8KH8-3" value="SEND_DATA" style="ellipse;whiteSpace=wrap;html=1;fillColor=#ffff88;strokeColor=#36393d;" parent="1" vertex="1">
          <mxGeometry x="460" y="250" width="120" height="60" as="geometry" />
        </mxCell>
        <mxCell id="SbbcOOe-M4RnM6OQ8KH8-4" value="IDLE" style="ellipse;whiteSpace=wrap;html=1;fillColor=#ffff88;strokeColor=#36393d;" parent="1" vertex="1">
          <mxGeometry x="460" y="130" width="120" height="60" as="geometry" />
        </mxCell>
        <mxCell id="SbbcOOe-M4RnM6OQ8KH8-5" value="WAIT_FOR_READY" style="ellipse;whiteSpace=wrap;html=1;fillColor=#ffff88;strokeColor=#36393d;" parent="1" vertex="1">
          <mxGeometry x="460" y="370" width="120" height="60" as="geometry" />
        </mxCell>
        <mxCell id="SbbcOOe-M4RnM6OQ8KH8-6" value="" style="endArrow=classic;html=1;rounded=0;exitX=0.5;exitY=1;exitDx=0;exitDy=0;entryX=0.5;entryY=0;entryDx=0;entryDy=0;" parent="1" source="SbbcOOe-M4RnM6OQ8KH8-4" target="SbbcOOe-M4RnM6OQ8KH8-3" edge="1">
          <mxGeometry width="50" height="50" relative="1" as="geometry">
            <mxPoint x="620" y="300" as="sourcePoint" />
            <mxPoint x="670" y="250" as="targetPoint" />
          </mxGeometry>
        </mxCell>
        <mxCell id="SbbcOOe-M4RnM6OQ8KH8-7" value="" style="endArrow=classic;html=1;rounded=0;exitX=0.5;exitY=1;exitDx=0;exitDy=0;entryX=0.5;entryY=0;entryDx=0;entryDy=0;" parent="1" edge="1">
          <mxGeometry width="50" height="50" relative="1" as="geometry">
            <mxPoint x="519.6600000000001" y="310" as="sourcePoint" />
            <mxPoint x="519.6600000000001" y="370" as="targetPoint" />
          </mxGeometry>
        </mxCell>
        <mxCell id="SbbcOOe-M4RnM6OQ8KH8-8" value="" style="endArrow=classic;html=1;rounded=0;exitX=0.5;exitY=1;exitDx=0;exitDy=0;entryX=0;entryY=0.5;entryDx=0;entryDy=0;" parent="1" target="SbbcOOe-M4RnM6OQ8KH8-4" edge="1" source="Ow-7XZzLv-gYGJ6s3WRC-1">
          <mxGeometry width="50" height="50" relative="1" as="geometry">
            <mxPoint x="519.6600000000001" y="430" as="sourcePoint" />
            <mxPoint x="380" y="160" as="targetPoint" />
            <Array as="points">
              <mxPoint x="520" y="720" />
              <mxPoint x="220" y="720" />
              <mxPoint x="220" y="160" />
            </Array>
          </mxGeometry>
        </mxCell>
        <mxCell id="SbbcOOe-M4RnM6OQ8KH8-9" value="refresh_stb_in&amp;nbsp; / &lt;br&gt;digits_r &amp;lt;= digits_in,&lt;div&gt;&lt;span style=&quot;background-color: initial;&quot;&gt;digit_cnt_r &amp;lt;= DIGIT_CNT_MAX,&lt;/span&gt;&lt;/div&gt;&lt;div&gt;&lt;span style=&quot;background-color: initial;&quot;&gt;x_index_r &amp;lt;= 0,&amp;nbsp;&lt;/span&gt;&lt;span style=&quot;background-color: initial;&quot;&gt;y_index_r &amp;lt;= 0&lt;/span&gt;&lt;/div&gt;" style="text;html=1;align=center;verticalAlign=middle;whiteSpace=wrap;rounded=0;" parent="1" vertex="1">
          <mxGeometry x="520" y="190" width="220" height="60" as="geometry" />
        </mxCell>
        <mxCell id="SbbcOOe-M4RnM6OQ8KH8-10" value="!oled_ready_in" style="text;html=1;align=center;verticalAlign=middle;whiteSpace=wrap;rounded=0;" parent="1" vertex="1">
          <mxGeometry x="520" y="320" width="130" height="30" as="geometry" />
        </mxCell>
        <mxCell id="SbbcOOe-M4RnM6OQ8KH8-11" value="oled_ready_in" style="text;html=1;align=center;verticalAlign=middle;whiteSpace=wrap;rounded=0;" parent="1" vertex="1">
          <mxGeometry x="130" y="260" width="90" height="50" as="geometry" />
        </mxCell>
        <mxCell id="SbbcOOe-M4RnM6OQ8KH8-12" value="State Machine: Data Streamer" style="shape=umlFrame;whiteSpace=wrap;html=1;pointerEvents=0;width=180;height=30;fillColor=none;dashed=1;dashPattern=8 8;" parent="1" vertex="1">
          <mxGeometry x="120" y="90" width="620" height="670" as="geometry" />
        </mxCell>
        <mxCell id="SbbcOOe-M4RnM6OQ8KH8-13" value="External reset" style="text;html=1;align=center;verticalAlign=middle;whiteSpace=wrap;rounded=0;" parent="1" vertex="1">
          <mxGeometry x="450" y="20" width="60" height="30" as="geometry" />
        </mxCell>
        <mxCell id="Ow-7XZzLv-gYGJ6s3WRC-1" value="WAIT_FOR_SYNC" style="ellipse;whiteSpace=wrap;html=1;fillColor=#ffff88;strokeColor=#36393d;" vertex="1" parent="1">
          <mxGeometry x="460" y="610" width="120" height="60" as="geometry" />
        </mxCell>
        <mxCell id="Ow-7XZzLv-gYGJ6s3WRC-2" value="SEND_SYNC" style="ellipse;whiteSpace=wrap;html=1;fillColor=#ffff88;strokeColor=#36393d;" vertex="1" parent="1">
          <mxGeometry x="460" y="490" width="120" height="60" as="geometry" />
        </mxCell>
        <mxCell id="Ow-7XZzLv-gYGJ6s3WRC-3" value="" style="endArrow=classic;html=1;rounded=0;exitX=0.5;exitY=1;exitDx=0;exitDy=0;entryX=0.5;entryY=0;entryDx=0;entryDy=0;" edge="1" parent="1">
          <mxGeometry width="50" height="50" relative="1" as="geometry">
            <mxPoint x="519.33" y="430" as="sourcePoint" />
            <mxPoint x="519.33" y="490" as="targetPoint" />
          </mxGeometry>
        </mxCell>
        <mxCell id="Ow-7XZzLv-gYGJ6s3WRC-4" value="" style="endArrow=classic;html=1;rounded=0;exitX=0.5;exitY=1;exitDx=0;exitDy=0;entryX=0.5;entryY=0;entryDx=0;entryDy=0;" edge="1" parent="1">
          <mxGeometry width="50" height="50" relative="1" as="geometry">
            <mxPoint x="519.33" y="550" as="sourcePoint" />
            <mxPoint x="519.33" y="610" as="targetPoint" />
          </mxGeometry>
        </mxCell>
        <mxCell id="Ow-7XZzLv-gYGJ6s3WRC-5" value="" style="endArrow=classic;html=1;rounded=0;exitX=0;exitY=0.5;exitDx=0;exitDy=0;entryX=0;entryY=0.5;entryDx=0;entryDy=0;" edge="1" parent="1" source="SbbcOOe-M4RnM6OQ8KH8-5" target="SbbcOOe-M4RnM6OQ8KH8-3">
          <mxGeometry width="50" height="50" relative="1" as="geometry">
            <mxPoint x="529.33" y="440" as="sourcePoint" />
            <mxPoint x="529.33" y="500" as="targetPoint" />
            <Array as="points">
              <mxPoint x="420" y="400" />
              <mxPoint x="420" y="280" />
            </Array>
          </mxGeometry>
        </mxCell>
        <mxCell id="Ow-7XZzLv-gYGJ6s3WRC-6" value="oled_ready_in &amp;amp;&amp;amp;&amp;nbsp;&lt;div&gt;y_index_r == Y_CNT_MAX &amp;amp;&amp;amp;&amp;nbsp;&lt;/div&gt;&lt;div&gt;x_index_r == X_CNT_MAX &amp;amp;&amp;amp;&amp;nbsp;&lt;/div&gt;&lt;div&gt;digit_cnt_r == 0&lt;/div&gt;" style="text;html=1;align=center;verticalAlign=middle;whiteSpace=wrap;rounded=0;" vertex="1" parent="1">
          <mxGeometry x="520" y="430" width="220" height="60" as="geometry" />
        </mxCell>
        <mxCell id="Ow-7XZzLv-gYGJ6s3WRC-7" value="!oled_ready_in" style="text;html=1;align=center;verticalAlign=middle;whiteSpace=wrap;rounded=0;" vertex="1" parent="1">
          <mxGeometry x="520" y="560" width="130" height="30" as="geometry" />
        </mxCell>
        <mxCell id="Ow-7XZzLv-gYGJ6s3WRC-8" value="&lt;div&gt;oled_ready_in &amp;amp;&amp;amp;&amp;nbsp;&lt;/div&gt;&lt;div&gt;(y_index_r != Y_CNT_MAX ||&lt;/div&gt;&lt;div&gt;x_index_r != X_CNT_MAX ||&lt;/div&gt;&lt;div&gt;digit_cnt_r != 0)&lt;/div&gt;" style="text;html=1;align=center;verticalAlign=middle;whiteSpace=wrap;rounded=0;" vertex="1" parent="1">
          <mxGeometry x="230" y="305" width="220" height="60" as="geometry" />
        </mxCell>
      </root>
    </mxGraphModel>
  </diagram>
</mxfile>
